<svg id="Layer_1" data-name="Layer 1" xmlns="http://www.w3.org/2000/svg" viewBox="0 0 255.41 214.29"><defs><style>.cls-1{fill:#63c196;}.cls-2{fill:#34a3a5;}.cls-3{fill:none;}</style></defs><path class="cls-1" d="M369.71,258.57c-8.48,14.16-17.31,28.14-29.11,21.31-10.89-7.26-20.89-14.53-30.88-4.54-9.24,9.24-18.47,17.81-28.26,26.31-1.77,1.52-3.54,3.05-5.35,4.57-7.26,5.45-14.53,12.72-23.61,15.45-10.9,3.63-20.89-1.82-23.62-11.81-6-17.34-1.73-37.62-8.38-53.65a95.84,95.84,0,0,1,149.21,2.36Z" transform="translate(-142.34 -221.69)"/><path class="cls-2" d="M397.75,330.48A105.49,105.49,0,1,1,211.18,263c7.32,17.65,2.62,40,9.23,59.06,3,11,14,17,26,13,10-3,18-11,26-17,2-1.68,3.94-3.36,5.88-5,10.78-9.35,20.95-18.79,31.12-29,11-11,22-3,34,5,13,7.52,22.71-7.87,32-23.47A105.1,105.1,0,0,1,397.75,330.48Z" transform="translate(-142.34 -221.69)"/><path class="cls-3" d="M225.58,246.78c-14.79,14-28.48,30.17-43.24,44-12.88,12.08-26.41,22.85-40,33.38v63.62h96v-141Zm2.76,4c0,1,0,2,1,2C228.34,252.78,228.34,251.78,228.34,250.78Z" transform="translate(-142.34 -221.69)"/><path class="cls-3" d="M160.63,318.06c13.59-10.53,27.12-21.3,40-33.38,14.76-13.83,28.45-30,43.24-44H160.63Z" transform="translate(-142.34 -221.69)"/></svg>